<svg height="512pt" viewBox="0 0 512 512" width="512pt" xmlns="http://www.w3.org/2000/svg"><path d="m433.039062 512h-354.078124c-43.539063 0-78.960938-35.421875-78.960938-78.960938v-354.078124c0-43.539063 35.421875-78.960938 78.960938-78.960938h354.078124c43.539063 0 78.960938 35.421875 78.960938 78.960938v354.078124c0 43.539063-35.421875 78.960938-78.960938 78.960938zm0 0" fill="#4a7aff"/><path d="m433.039062 0h-177.042968v512h177.042968c43.539063 0 78.960938-35.421875 78.960938-78.960938v-354.078124c0-43.539063-35.421875-78.960938-78.960938-78.960938zm0 0" fill="#0160ad"/><path d="m258.132812 71.800781h-86.515624c-24.960938 0-45.265626 20.304688-45.265626 45.265625v308.042969c0 8.335937 6.753907 15.089844 15.085938 15.089844h60.355469c8.332031 0 15.085937-6.753907 15.085937-15.089844v-98.265625h41.253906c70.3125 0 127.515626-57.207031 127.515626-127.527344 0-70.3125-57.203126-127.515625-127.515626-127.515625zm0 164.515625h-41.253906v-73.984375h41.253906c20.394532 0 36.988282 16.589844 36.988282 36.984375 0 20.402344-16.59375 37-36.988282 37zm0 0" fill="#fff"/><path d="m258.132812 71.800781h-2.136718v90.53125h2.136718c20.394532 0 36.988282 16.589844 36.988282 36.984375 0 20.402344-16.59375 37-36.988282 37h-2.136718v90.527344h2.136718c70.3125 0 127.515626-57.207031 127.515626-127.527344 0-70.3125-57.203126-127.515625-127.515626-127.515625zm0 0" fill="#dce1eb"/></svg>