<svg height="512pt" viewBox="-61 0 512 512" width="512pt" xmlns="http://www.w3.org/2000/svg"><path d="m389.179688 194.589844c0 58.828125-29.976563 104.566406-63.367188 150.113281l-.324219.4375-130.898437 166.859375-131.222656-167.308594c-33.394532-45.535156-63.367188-91.285156-63.367188-150.101562 0-107.292969 87.285156-194.589844 194.566406-194.589844h.78125c106.949219.414062 193.832032 87.554688 193.832032 194.589844zm0 0" fill="#009ae5"/><path d="m389.179688 194.589844c0 58.828125-29.976563 104.566406-63.367188 150.113281l-.324219.4375-130.898437 166.859375v-512h.757812c106.949219.414062 193.832032 87.554688 193.832032 194.589844zm0 0" fill="#006ef5"/><path d="m308.933594 194.777344c0 63.054687-51.289063 114.34375-114.34375 114.34375-63.054688 0-114.34375-51.289063-114.34375-114.34375 0-63.050782 51.289062-114.339844 114.34375-114.339844 63.050781 0 114.34375 51.289062 114.34375 114.339844zm0 0" fill="#fff"/><path d="m194.589844 309.121094v-228.683594c63.050781 0 114.34375 51.289062 114.34375 114.339844 0 63.054687-51.292969 114.34375-114.34375 114.34375zm0 0" fill="#e1e1e3"/><path d="m204.617188 130.5h-44.566407v132.710938h30v-42.019532l4.539063.089844 9.179687.167969c12.308594.261719 23.917969-4.390625 32.699219-13.019531 8.789062-8.621094 13.621094-20.140626 13.621094-32.449219 0-25.082031-20.402344-45.480469-45.472656-45.480469zm10.84375 56.519531c-2.992188 2.941407-6.941407 4.511719-11.132813 4.429688l-9.738281-.179688-4.539063-.089843v-30.679688h14.566407c8.53125 0 15.472656 6.941406 15.472656 15.480469 0 4.191406-1.640625 8.109375-4.628906 11.039062zm0 0" fill="#4a696f"/><path d="m250.089844 175.980469c0 12.308593-4.832032 23.828125-13.621094 32.449219-8.78125 8.628906-20.390625 13.28125-32.699219 13.019531l-9.179687-.167969v-30.011719l9.738281.179688c4.191406.082031 8.140625-1.488281 11.132813-4.429688 2.988281-2.929687 4.628906-6.847656 4.628906-11.039062 0-8.539063-6.941406-15.480469-15.472656-15.480469h-10.027344v-30h10.027344c25.070312 0 45.472656 20.398438 45.472656 45.480469zm0 0" fill="#3e5959"/></svg>